<svg width="360" height="183" viewBox="0 0 360 183" fill="none" xmlns="http://www.w3.org/2000/svg">
<mask id="mask0" mask-type="alpha" maskUnits="userSpaceOnUse" x="0" y="0" width="360" height="183">
<path d="M0 0H310C337.614 0 360 22.3858 360 50V183H0V0Z" fill="#3F3D56"/>
</mask>
<g mask="url(#mask0)">
<path d="M0 0H310C337.614 0 360 22.3858 360 50V183H0V0Z" fill="#3F3D56"/>
<g clip-path="url(#clip0)">
<path d="M308.547 89.3119C298.516 89.3119 290.384 81.1719 290.384 71.1307C290.384 61.0895 298.516 52.9495 308.547 52.9495C318.578 52.9495 326.709 61.0895 326.709 71.1307C326.709 81.1719 318.578 89.3119 308.547 89.3119Z" fill="#1DC9B7"/>
<path d="M159.728 65.5071V113.327C159.727 122.595 161.551 131.773 165.094 140.336C168.637 148.899 173.831 156.68 180.378 163.234C186.925 169.787 194.698 174.986 203.252 178.533C211.806 182.08 220.975 183.905 230.234 183.905H360V136.085C360 110.532 346.433 88.1483 326.114 75.7625C322.612 73.6262 318.93 71.802 315.11 70.3111C312.861 69.4319 310.568 68.6709 308.241 68.0314C308.195 68.0163 308.148 68.0033 308.102 67.9925C307.414 67.8041 306.722 67.6266 306.026 67.4599C305.987 67.4491 305.95 67.4404 305.911 67.4317C301.619 66.408 297.241 65.7898 292.833 65.585C292.312 65.5612 291.791 65.5417 291.265 65.5309C291.077 65.5244 290.887 65.5201 290.694 65.5201C290.296 65.5114 289.896 65.5071 289.494 65.5071H159.728Z" fill="#3F3D56"/>
<path d="M266.568 153.089C318.061 153.089 359.823 166.988 359.998 184.156H173.139C173.314 166.988 215.076 153.089 266.568 153.089Z" fill="#F9F9F9"/>
<g opacity="0.1">
<path opacity="0.1" d="M283.871 176.627C274.315 176.627 266.568 174.473 266.568 171.816C266.568 169.159 274.315 167.005 283.871 167.005C293.426 167.005 301.173 169.159 301.173 171.816C301.173 174.473 293.426 176.627 283.871 176.627Z" fill="black"/>
</g>
<g opacity="0.1">
<path opacity="0.1" d="M246.455 167.967C236.899 167.967 229.153 165.813 229.153 163.156C229.153 160.499 236.899 158.345 246.455 158.345C256.01 158.345 263.757 160.499 263.757 163.156C263.757 165.813 256.01 167.967 246.455 167.967Z" fill="black"/>
</g>
<g opacity="0.1">
<path opacity="0.1" d="M283.871 176.146C275.27 176.146 268.299 174.207 268.299 171.816C268.299 169.424 275.27 167.486 283.871 167.486C292.471 167.486 299.443 169.424 299.443 171.816C299.443 174.207 292.471 176.146 283.871 176.146Z" fill="black"/>
</g>
<g opacity="0.1">
<path opacity="0.1" d="M246.455 167.486C237.855 167.486 230.883 165.547 230.883 163.156C230.883 160.764 237.855 158.826 246.455 158.826C255.055 158.826 262.027 160.764 262.027 163.156C262.027 165.547 255.055 167.486 246.455 167.486Z" fill="black"/>
</g>
<path d="M330.154 86.2995C329.318 86.2995 328.64 85.621 328.64 84.784C328.64 83.9471 329.318 83.2686 330.154 83.2686C330.99 83.2686 331.668 83.9471 331.668 84.784C331.668 85.621 330.99 86.2995 330.154 86.2995Z" fill="#F2F2F2"/>
<path d="M199.955 145.62C199.119 145.62 198.441 144.941 198.441 144.104C198.441 143.267 199.119 142.589 199.955 142.589C200.791 142.589 201.469 143.267 201.469 144.104C201.469 144.941 200.791 145.62 199.955 145.62Z" fill="#F2F2F2"/>
<path d="M271.327 96.9078C270.49 96.9078 269.813 96.2293 269.813 95.3923C269.813 94.5553 270.49 93.8768 271.327 93.8768C272.163 93.8768 272.84 94.5553 272.84 95.3923C272.84 96.2293 272.163 96.9078 271.327 96.9078Z" fill="#F2F2F2"/>
<path d="M196.279 87.1656C195.801 87.1656 195.413 86.7778 195.413 86.2996C195.413 85.8213 195.801 85.4336 196.279 85.4336C196.756 85.4336 197.144 85.8213 197.144 86.2996C197.144 86.7778 196.756 87.1656 196.279 87.1656Z" fill="#1DC9B7"/>
<path d="M326.693 130.465C326.216 130.465 325.828 130.077 325.828 129.599C325.828 129.121 326.216 128.733 326.693 128.733C327.171 128.733 327.558 129.121 327.558 129.599C327.558 130.077 327.171 130.465 326.693 130.465Z" fill="#1DC9B7"/>
<path d="M339.67 147.854H340.064V147.46H340.141V147.854H340.535V147.931H340.141V148.326H340.064V147.931H339.67V147.854Z" fill="#F2F2F2"/>
<path d="M213.148 115.813H213.542V115.418H213.619V115.813H214.013V115.89H213.619V116.284H213.542V115.89H213.148V115.813Z" fill="#F2F2F2"/>
<path d="M180.49 109.318H180.884V108.923H180.961V109.318H181.355V109.395H180.961V109.789H180.884V109.395H180.49V109.318Z" fill="#F2F2F2"/>
<path d="M250.78 126.638H251.174V126.243H251.251V126.638H251.645V126.715H251.251V127.109H251.174V126.715H250.78V126.638Z" fill="#F2F2F2"/>
<path d="M190.006 128.803H190.401V128.408H190.478V128.803H190.872V128.88H190.478V129.274H190.401V128.88H190.006V128.803Z" fill="#F2F2F2"/>
<path d="M263.324 138.112H263.718V137.717H263.795V138.112H264.189V138.189H263.795V138.583H263.718V138.189H263.324V138.112Z" fill="#F2F2F2"/>
<path d="M235.641 138.545H236.035V138.15H236.112V138.545H236.506V138.622H236.112V139.016H236.035V138.622H235.641V138.545Z" fill="#F2F2F2"/>
<path d="M339.237 101.74H339.631V101.346H339.708V101.74H340.103V101.817H339.708V102.212H339.631V101.817H339.237V101.74Z" fill="#F2F2F2"/>
<path d="M212.96 71.9434H213.581V84.5139H212.96V71.9434Z" fill="#E6E6E6"/>
<path d="M227.693 105.361L233.413 118.554L232.294 120.421L232.667 121.043L230.056 122.412V121.665L229.061 121.416L224.834 113.7L227.693 105.361Z" fill="#E6E6E6"/>
<path d="M232.169 120.919C232.169 120.919 236.397 127.515 231.672 128.511C226.947 129.507 230.802 121.541 230.802 121.541L232.169 120.919Z" fill="#E6E6E6"/>
<path d="M226.077 117.932L227.569 122.786L228.191 129.009L229.31 131.249L228.066 141.33L226.077 143.322L225.207 153.279V157.759L222.844 161.866L225.886 166.189C226.03 166.392 226.116 166.63 226.135 166.878C226.154 167.126 226.106 167.374 225.995 167.597C225.884 167.82 225.715 168.008 225.506 168.143C225.297 168.277 225.055 168.352 224.807 168.36C224.135 168.378 223.25 168.188 222.098 167.591C218.492 165.725 218.617 163.982 218.617 163.982C218.617 163.982 216.379 163.982 216.254 162.24C216.13 160.497 217.622 148.051 217.622 148.051L218.99 142.699V128.137H218.492L218.244 140.584L217.125 145.189L217 147.18L215.384 167.094C215.384 167.094 208.173 169.085 207.8 167.467C207.427 165.849 210.535 164.853 210.535 164.853L208.67 161.244V154.274L209.292 152.781L210.411 142.699L208.546 140.708L207.551 139.463V129.507L208.794 125.648L209.167 122.412L211.157 117.434C211.157 117.434 220.233 114.447 226.077 117.932Z" fill="white"/>
<path d="M209.913 89.8035C209.913 91.3005 210.268 92.7762 210.949 94.1092C211.63 95.4422 212.617 96.5944 213.829 97.4711C215.041 98.3478 216.444 98.924 217.922 99.1522C219.4 99.3804 220.911 99.2542 222.331 98.784C223.751 98.3137 225.039 97.5128 226.089 96.4471C227.14 95.3814 227.922 94.0814 228.373 92.654C228.824 91.2265 228.929 89.7123 228.682 88.236C228.434 86.7596 227.839 85.3633 226.947 84.1617L226.945 84.1592C225.759 82.5632 224.102 81.3818 222.207 80.7829C220.313 80.184 218.278 80.198 216.392 80.823C214.506 81.4481 212.865 82.6522 211.702 84.2644C210.539 85.8766 209.913 87.8148 209.913 89.8035Z" fill="#6C63FF"/>
<g opacity="0.1">
<path opacity="0.1" d="M211.256 85.8817L212.027 90.3013C217.82 75.249 227.034 84.4952 227.193 84.657C226.241 83.375 224.98 82.3553 223.527 81.6931C222.075 81.0309 220.479 80.7478 218.887 80.87C217.296 80.9923 215.762 81.5161 214.427 82.3924C213.093 83.2688 212.002 84.4692 211.256 85.8817Z" fill="black"/>
</g>
<path d="M211.008 85.3839L211.778 89.8035C217.571 74.7512 226.786 83.9974 226.945 84.1592C225.992 82.8772 224.731 81.8575 223.279 81.1953C221.826 80.5331 220.23 80.25 218.639 80.3722C217.047 80.4945 215.513 81.0183 214.179 81.8946C212.844 82.771 211.753 83.9714 211.008 85.3839Z" fill="white"/>
<path d="M212.303 83.5181L211.008 88.0191C211.008 88.0191 213.696 96.0865 226.165 96.3677L226.574 97.5201L227.942 97.8935L228.564 100.507L226.823 117.06C226.823 117.06 227.569 118.678 226.325 118.554C226.325 118.554 218.119 115.816 211.032 118.305C211.032 118.305 209.54 118.927 209.913 117.558C209.913 117.558 204.94 114.447 205.313 111.211C205.686 107.975 204.94 92.9151 204.94 92.9151C204.94 92.9151 204.194 88.5589 206.432 87.5633C206.432 87.5633 209.719 82.9578 212.303 83.5181Z" fill="white"/>
<path d="M215.029 114.967C215.029 114.967 222.819 115.75 220.662 120.075C218.506 124.399 214.666 116.427 214.666 116.427L215.029 114.967Z" fill="#E6E6E6"/>
<path d="M211.032 95.6532C211.032 95.6532 212.4 97.2712 211.903 99.8849C211.405 102.499 209.54 108.348 209.54 108.348L216.13 114.447L214.141 117.185L205.189 112.58L203.199 111.335C203.694 106.301 204.925 101.367 206.853 96.6913L207.178 95.9021C207.178 95.9021 209.54 94.9064 211.032 95.6532Z" fill="#E6E6E6"/>
<path d="M211.654 91.2348C210.384 91.2348 209.354 90.2039 209.354 88.9323C209.354 87.6606 210.384 86.6298 211.654 86.6298C212.925 86.6298 213.954 87.6606 213.954 88.9323C213.954 90.2039 212.925 91.2348 211.654 91.2348Z" fill="#E6E6E6"/>
<path d="M213.27 73.5614C212.343 73.5614 211.592 72.8091 211.592 71.8812C211.592 70.9532 212.343 70.2009 213.27 70.2009C214.197 70.2009 214.949 70.9532 214.949 71.8812C214.949 72.8091 214.197 73.5614 213.27 73.5614Z" fill="#E6E6E6"/>
<path d="M255.971 98.2765H256.365V97.8821H256.442V98.2765H256.836V98.3536H256.442V98.7481H256.365V98.3536H255.971V98.2765Z" fill="#F2F2F2"/>
<path d="M220.502 86.1528H220.896V85.7583H220.973V86.1528H221.367V86.2298H220.973V86.6243H220.896V86.2298H220.502V86.1528Z" fill="#F2F2F2"/>
<path d="M224.394 89.8332H224.789V89.4387H224.866V89.8332H225.26V89.9102H224.866V90.3047H224.789V89.9102H224.394V89.8332Z" fill="#F2F2F2"/>
<path d="M239.75 80.6706C239.272 80.6706 238.885 80.2829 238.885 79.8046C238.885 79.3263 239.272 78.9386 239.75 78.9386C240.228 78.9386 240.615 79.3263 240.615 79.8046C240.615 80.2829 240.228 80.6706 239.75 80.6706Z" fill="#F2F2F2"/>
<path d="M282.366 85.9086C282.366 146.321 289.955 146.321 299.313 146.321C304.152 146.321 308.516 146.321 311.603 137.976C312.491 135.577 313.275 132.485 313.932 128.504C315.412 119.555 316.261 106.108 316.261 85.9086C316.261 78.1411 315.342 70.5265 313.932 63.4143C313.254 59.9903 312.462 56.6855 311.603 53.5334C310.553 49.6743 309.401 46.0457 308.24 42.7253C307.461 40.4927 306.674 38.3974 305.911 36.4626C302.384 27.5323 299.313 22 299.313 22C299.313 22 282.366 52.544 282.366 85.9086Z" fill="#F2F2F2"/>
<g opacity="0.1">
<path opacity="0.1" d="M305.911 36.4626V141.788H308.24V42.7253C307.461 40.4927 306.674 38.3974 305.911 36.4626Z" fill="black"/>
</g>
<path d="M299.831 73.0234C294.686 73.0234 290.516 68.8488 290.516 63.6993C290.516 58.5498 294.686 54.3752 299.831 54.3752C304.975 54.3752 309.145 58.5498 309.145 63.6993C309.145 68.8488 304.975 73.0234 299.831 73.0234Z" fill="#3F3D56"/>
<path d="M279.39 140.623C281.461 135.52 284.121 134.639 285.859 134.716V133.889H313.026V134.716C314.764 134.639 317.424 135.52 319.495 140.623C322.858 148.911 317.425 163.156 317.425 163.156C317.425 163.156 320.329 143.289 310.686 143.158C309.851 144.248 308.826 145.179 307.661 145.905V151.249H292.089V146.392C290.567 145.619 289.237 144.514 288.199 143.158C278.556 143.289 281.46 163.156 281.46 163.156C281.46 163.156 276.027 148.911 279.39 140.623Z" fill="#6C63FF"/>
<path d="M299.831 70.9513C295.829 70.9513 292.586 67.7045 292.586 63.6993C292.586 59.6941 295.829 56.4473 299.831 56.4473C303.832 56.4473 307.075 59.6941 307.075 63.6993C307.075 67.7045 303.832 70.9513 299.831 70.9513Z" fill="#6C63FF"/>
<path d="M26.7785 0H27.4481C27.4 7.25833 24.4879 14.2034 19.3465 19.3218C14.2051 24.4402 7.25111 27.317 0 27.3252V26.6549C7.0737 26.6473 13.8577 23.8413 18.8736 18.8485C23.8896 13.8557 26.7309 7.08074 26.7785 0Z" fill="#6C63FF"/>
<path d="M39.1651 0H39.8347C39.7838 10.546 35.5658 20.6433 28.102 28.0863C20.6383 35.5294 10.5354 39.7134 0 39.7244V39.0541C10.3576 39.0425 20.2899 34.929 27.6279 27.6117C34.966 20.2945 39.1136 10.368 39.1651 0Z" fill="#1DC9B7"/>
<path d="M51.8898 0H52.5594C52.4757 28.9404 28.9311 52.4587 3.8147e-06 52.4587V51.7884C28.5628 51.7884 51.8061 28.5718 51.8898 0Z" fill="#1DC9B7"/>
</g>
</g>
<defs>
<clipPath id="clip0">
<rect width="360" height="184" fill="white" transform="matrix(-1 0 0 1 360 0)"/>
</clipPath>
</defs>
</svg>
