<svg width="291" height="216" viewBox="0 0 291 216" fill="none" xmlns="http://www.w3.org/2000/svg">
<path d="M189.744 0L146.549 48.2189C148.872 50.021 150.798 52.2821 152.209 54.8614C153.62 57.4406 154.484 60.2827 154.749 63.2107C155.014 66.1387 154.673 69.0898 153.748 71.8803C152.823 74.6708 151.333 77.2409 149.371 79.4306C147.41 81.6202 145.019 83.3824 142.347 84.6076C139.675 85.8327 136.779 86.4944 133.84 86.5516C130.901 86.6088 127.982 86.0601 125.264 84.9398C122.547 83.8195 120.089 82.1516 118.044 80.0399L57.8756 147.206C75.2231 160.69 96.5755 167.996 118.546 167.963C173.257 167.963 217.609 123.603 217.609 68.8825C217.642 43.1687 207.645 18.4563 189.744 0Z" fill="#F2F2F2"/>
<path d="M135.038 79.1692C142.176 79.1692 147.962 73.3819 147.962 66.2429C147.962 59.1039 142.176 53.3166 135.038 53.3166C127.901 53.3166 122.114 59.1039 122.114 66.2429C122.114 73.3819 127.901 79.1692 135.038 79.1692Z" fill="#F2F2F2"/>
<path d="M197.614 90.2423H56.4082V179.232H197.614V90.2423Z" fill="#3F3D56"/>
<path d="M211.489 46.1294C211.489 46.1294 202.387 45.7603 202.141 55.1091C201.895 64.4579 202.141 72.4536 202.141 72.4536H220.344V55.6012C220.344 55.6012 219.975 46.7444 211.489 46.1294Z" fill="#2F2E41"/>
<path d="M207.936 62.7904C207.936 62.7904 208.476 68.9152 206.675 69.4556C204.874 69.9961 207.396 77.7421 207.396 77.7421L214.6 79.3634L218.742 71.0769L216.941 68.7351C216.941 68.7351 213.879 64.5918 215.32 61.7096C216.761 58.8273 207.936 62.7904 207.936 62.7904Z" fill="#FFB9B9"/>
<path opacity="0.1" d="M207.936 62.7904C207.936 62.7904 208.476 68.9152 206.675 69.4556C204.874 69.9961 207.396 77.7421 207.396 77.7421L214.6 79.3634L218.742 71.0769L216.941 68.7351C216.941 68.7351 213.879 64.5918 215.32 61.7096C216.761 58.8273 207.936 62.7904 207.936 62.7904Z" fill="black"/>
<path d="M210.457 65.6727C214.337 65.6727 217.482 62.5272 217.482 58.6472C217.482 54.7671 214.337 51.6217 210.457 51.6217C206.578 51.6217 203.433 54.7671 203.433 58.6472C203.433 62.5272 206.578 65.6727 210.457 65.6727Z" fill="#FFB9B9"/>
<path d="M183.081 82.786C183.081 82.786 178.758 86.0285 180.019 88.5505C181.28 91.0725 185.062 99.7192 185.062 99.7192C185.062 99.7192 185.783 106.384 188.844 106.024C191.906 105.664 188.844 98.9987 188.844 98.9987L185.062 88.7307L186.323 86.7491L183.081 82.786Z" fill="#FFB9B9"/>
<path d="M241.436 83.8669C241.436 83.8669 246.299 87.6498 243.417 89.0909C240.536 90.5321 228.288 97.3774 228.288 97.3774C228.288 97.3774 220.904 102.962 220.003 98.6384C219.103 94.315 224.866 94.4952 224.866 94.4952C224.866 94.4952 236.393 87.4697 236.933 86.0286C237.474 84.5874 241.436 83.8669 241.436 83.8669Z" fill="#FFB9B9"/>
<path d="M198.57 108.546C198.57 108.546 196.229 121.336 197.49 128.542C198.232 133.027 198.11 137.613 197.129 142.052L204.154 142.773C204.154 142.773 208.656 116.112 211.178 116.292C213.699 116.472 219.103 143.133 219.103 143.133L226.667 142.052C226.667 142.052 224.326 130.163 225.407 126.56C226.487 122.957 225.767 109.987 223.065 108.546C220.363 107.105 198.57 108.546 198.57 108.546Z" fill="#575A89"/>
<path d="M204.874 142.052C204.874 142.052 196.769 139.35 196.049 141.332C195.328 143.313 195.508 165.471 195.689 166.912C195.869 168.353 196.409 167.632 195.869 168.353C195.328 169.073 195.328 167.452 195.508 169.434C195.689 171.415 195.869 171.775 195.869 171.775C195.869 171.775 192.627 179.341 198.39 179.161C204.154 178.981 201.452 173.577 201.452 173.577C201.452 173.577 202.353 171.956 201.812 171.055C201.272 170.154 201.092 168.713 201.812 167.993C202.533 167.272 201.092 165.831 200.912 165.29C200.732 164.75 200.191 164.93 201.632 163.129C203.073 161.327 202.353 160.427 202.172 159.886C201.992 159.346 203.433 156.103 203.433 156.103L204.874 142.052Z" fill="#2F2E41"/>
<path d="M218.562 142.052C218.562 142.052 226.667 139.35 227.388 141.332C228.108 143.313 227.928 165.471 227.748 166.912C227.568 168.353 227.027 167.632 227.568 168.353C228.108 169.073 228.108 167.452 227.928 169.434C227.748 171.415 227.568 171.776 227.568 171.776C227.568 171.776 230.81 179.341 225.046 179.161C219.283 178.981 221.984 173.577 221.984 173.577C221.984 173.577 221.084 171.956 221.624 171.055C222.164 170.154 222.345 168.713 221.624 167.993C220.904 167.272 222.345 165.831 222.525 165.29C222.705 164.75 223.245 164.93 221.804 163.129C220.363 161.327 221.084 160.427 221.264 159.886C221.444 159.346 220.003 156.103 220.003 156.103L218.562 142.052Z" fill="#2F2E41"/>
<path d="M210.818 75.2201C210.818 75.2201 209.557 71.4371 208.836 70.7166C208.116 69.996 207.649 68.1314 207.649 68.1314C207.649 68.1314 203.613 69.6358 202.533 69.996C201.452 70.3563 197.85 70.3563 197.85 70.8967V82.4257C197.85 82.4257 197.49 84.7676 198.21 90.7122C198.93 96.6568 201.092 100.26 198.57 102.782C196.049 105.304 198.21 111.428 199.471 112.509C200.732 113.59 225.226 119.174 225.406 106.024C225.406 106.024 219.463 95.576 221.984 92.1533C224.506 88.7307 226.667 82.9662 226.667 82.9662V71.4372C226.667 71.4372 222.705 70.1762 221.444 69.996C220.183 69.8159 217.121 66.3932 216.761 66.5734C216.401 66.7535 215.705 66.5665 215.705 66.5665L215.681 69.0953L210.818 75.2201Z" fill="#6C63FF"/>
<path d="M200.371 71.7974L197.85 70.8967C197.85 70.8967 194.788 72.518 194.788 72.8783C194.788 73.2386 192.987 74.8598 192.086 75.5804C191.186 76.301 188.664 76.4811 188.664 76.8414C188.664 77.2017 180.74 82.9662 181.46 83.8669C182.18 84.7676 184.522 88.0101 185.783 88.0101C187.043 88.0101 190.105 84.7676 190.646 84.5874C191.186 84.4073 196.769 80.9846 198.57 81.525C200.371 82.0655 200.371 71.7974 200.371 71.7974Z" fill="#6C63FF"/>
<path d="M223.245 72.1577L226.667 71.4372C226.667 71.4372 233.151 76.301 233.331 76.4811C233.511 76.6612 243.597 83.1463 243.057 84.4073C242.517 85.6683 236.753 87.4697 235.312 86.9293C233.872 86.3888 227.748 81.8853 225.406 82.4257C223.065 82.9662 223.245 72.1577 223.245 72.1577Z" fill="#6C63FF"/>
<path d="M217.932 56.3954C218.787 52.8035 218.437 51.8493 218.437 51.8493L207.492 49.1431L203.679 52.8334V56.6467L204.064 57.8365C204.064 57.8365 205.647 56.6467 205.032 54.9246C205.032 54.9246 217.317 58.9786 217.932 56.3954Z" fill="#2F2E41"/>
<path d="M218.068 54.3848L217.031 55.4947C218.667 55.5145 216.489 68.6781 217.212 70.8067L219.913 70.8682V53.3339L218.068 54.3848Z" fill="#2F2E41"/>
<path d="M203.703 58.7373C204.002 58.7373 204.244 58.213 204.244 57.5663C204.244 56.9197 204.002 56.3954 203.703 56.3954C203.405 56.3954 203.163 56.9197 203.163 57.5663C203.163 58.213 203.405 58.7373 203.703 58.7373Z" fill="#FFB9B9"/>
<path d="M217.572 58.7373C217.87 58.7373 218.112 58.213 218.112 57.5663C218.112 56.9197 217.87 56.3954 217.572 56.3954C217.273 56.3954 217.031 56.9197 217.031 57.5663C217.031 58.213 217.273 58.7373 217.572 58.7373Z" fill="#FFB9B9"/>
<path d="M119.81 158.969L119.487 158.645L133.395 144.735L121.088 132.427L121.412 132.103L134.042 144.735L119.81 158.969Z" fill="#2F2E41"/>
<path d="M132.917 149.654C135.571 149.654 137.722 147.503 137.722 144.849C137.722 142.196 135.571 140.044 132.917 140.044C130.264 140.044 128.113 142.196 128.113 144.849C128.113 147.503 130.264 149.654 132.917 149.654Z" fill="#1DC9B7"/>
<path d="M120.335 163.612C122.988 163.612 125.139 161.461 125.139 158.807C125.139 156.153 122.988 154.002 120.335 154.002C117.682 154.002 115.531 156.153 115.531 158.807C115.531 161.461 117.682 163.612 120.335 163.612Z" fill="#1DC9B7"/>
<path d="M120.725 132.427L120.402 132.103L134.31 118.193L122.003 105.884L122.327 105.561L134.957 118.193L120.725 132.427Z" fill="#2F2E41"/>
<path d="M122.165 110.527C124.818 110.527 126.969 108.376 126.969 105.722C126.969 103.069 124.818 100.917 122.165 100.917C119.512 100.917 117.361 103.069 117.361 105.722C117.361 108.376 119.512 110.527 122.165 110.527Z" fill="#1DC9B7"/>
<path d="M133.833 123.112C136.486 123.112 138.637 120.961 138.637 118.307C138.637 115.653 136.486 113.502 133.833 113.502C131.179 113.502 129.028 115.653 129.028 118.307C129.028 120.961 131.179 123.112 133.833 123.112Z" fill="#1DC9B7"/>
<path d="M121.25 137.07C123.903 137.07 126.054 134.918 126.054 132.265C126.054 129.611 123.903 127.46 121.25 127.46C118.597 127.46 116.446 129.611 116.446 132.265C116.446 134.918 118.597 137.07 121.25 137.07Z" fill="#1DC9B7"/>
<path opacity="0.3" d="M86.4764 95.8833H62.684V100.231H86.4764V95.8833Z" fill="#6C63FF"/>
<path opacity="0.3" d="M181.417 145.078H157.625V146.222H181.417V145.078Z" fill="#6C63FF"/>
<path opacity="0.3" d="M181.417 148.51H157.625V149.655H181.417V148.51Z" fill="#6C63FF"/>
<path opacity="0.3" d="M181.417 151.943H157.625V153.087H181.417V151.943Z" fill="#6C63FF"/>
<path opacity="0.3" d="M181.417 155.375H157.625V156.519H181.417V155.375Z" fill="#6C63FF"/>
<path opacity="0.3" d="M181.417 158.807H157.625V159.951H181.417V158.807Z" fill="#6C63FF"/>
<path opacity="0.3" d="M181.417 162.239H157.625V163.383H181.417V162.239Z" fill="#6C63FF"/>
<path d="M49.8173 170.004C51.399 175.852 56.8168 179.474 56.8168 179.474C56.8168 179.474 59.6701 173.615 58.0884 167.766C56.5066 161.918 51.0888 158.297 51.0888 158.297C51.0888 158.297 48.2355 164.156 49.8173 170.004Z" fill="#3F3D56"/>
<path d="M52.1415 168.747C56.4818 172.973 57.012 179.469 57.012 179.469C57.012 179.469 50.5051 179.114 46.1648 174.888C41.8244 170.662 41.2943 164.166 41.2943 164.166C41.2943 164.166 47.8012 164.522 52.1415 168.747Z" fill="#1DC9B7"/>
<path d="M271.554 178.943H34.5448V179.4H271.554V178.943Z" fill="#3F3D56"/>
<path d="M258.4 164.865C258.398 163.851 258.091 162.861 257.519 162.024C256.946 161.188 256.134 160.543 255.19 160.175C256.284 159.749 257.195 158.955 257.766 157.929C258.336 156.902 258.53 155.709 258.314 154.555C258.097 153.401 257.484 152.359 256.581 151.609C255.678 150.859 254.541 150.449 253.367 150.449C252.193 150.449 251.056 150.859 250.152 151.609C249.249 152.359 248.636 153.401 248.42 154.555C248.204 155.709 248.397 156.902 248.968 157.929C249.538 158.955 250.449 159.749 251.544 160.175C250.598 160.542 249.786 161.186 249.213 162.023C248.64 162.86 248.334 163.851 248.334 164.865C248.334 165.88 248.64 166.87 249.213 167.707C249.786 168.544 250.598 169.189 251.544 169.556C250.449 169.981 249.538 170.776 248.968 171.802C248.397 172.828 248.204 174.022 248.42 175.176C248.636 176.33 249.249 177.372 250.152 178.122C251.056 178.872 252.193 179.282 253.367 179.282C254.541 179.282 255.678 178.872 256.581 178.122C257.484 177.372 258.097 176.33 258.314 175.176C258.53 174.022 258.336 172.828 257.766 171.802C257.195 170.776 256.284 169.981 255.19 169.556C256.134 169.188 256.946 168.543 257.519 167.706C258.091 166.87 258.398 165.879 258.4 164.865ZM248.791 155.484C248.791 154.623 249.033 153.779 249.49 153.05C249.947 152.32 250.601 151.735 251.376 151.36C252.151 150.985 253.016 150.837 253.871 150.932C254.727 151.027 255.538 151.361 256.212 151.896C256.886 152.432 257.396 153.147 257.682 153.959C257.968 154.771 258.019 155.647 257.83 156.487C257.641 157.327 257.218 158.096 256.611 158.707C256.005 159.317 255.238 159.744 254.399 159.938C253.718 159.796 253.015 159.796 252.334 159.938C251.328 159.704 250.43 159.137 249.787 158.328C249.144 157.52 248.793 156.517 248.791 155.484ZM257.942 174.247C257.943 175.108 257.701 175.951 257.244 176.681C256.786 177.41 256.133 177.996 255.358 178.371C254.583 178.745 253.718 178.894 252.862 178.799C252.007 178.704 251.195 178.37 250.521 177.834C249.847 177.299 249.338 176.584 249.052 175.772C248.765 174.96 248.714 174.084 248.903 173.244C249.093 172.404 249.515 171.635 250.122 171.024C250.729 170.414 251.496 169.987 252.334 169.792C253.015 169.935 253.718 169.935 254.399 169.792C255.405 170.026 256.303 170.594 256.946 171.402C257.589 172.211 257.94 173.213 257.942 174.247ZM254.399 169.32C253.718 169.177 253.015 169.177 252.334 169.32C251.327 169.087 250.429 168.52 249.785 167.711C249.142 166.902 248.791 165.899 248.791 164.865C248.791 163.832 249.142 162.828 249.785 162.019C250.429 161.21 251.327 160.643 252.334 160.411C253.015 160.554 253.718 160.554 254.399 160.411C255.406 160.643 256.305 161.21 256.948 162.019C257.592 162.828 257.942 163.832 257.942 164.865C257.942 165.899 257.592 166.902 256.948 167.711C256.305 168.52 255.406 169.087 254.399 169.32Z" fill="#3F3D56"/>
<path d="M58.9092 81.5772C57.9137 81.5772 56.9407 81.282 56.113 80.7288C55.2853 80.1757 54.6402 79.3895 54.2593 78.4697C53.8783 77.5499 53.7787 76.5377 53.9729 75.5612C54.1671 74.5848 54.6464 73.6878 55.3503 72.9838C56.0542 72.2798 56.951 71.8004 57.9273 71.6061C58.9036 71.4119 59.9156 71.5116 60.8352 71.8926C61.7549 72.2736 62.541 72.9188 63.094 73.7466C63.647 74.5744 63.9422 75.5477 63.9422 76.5433C63.9407 77.8779 63.41 79.1574 62.4664 80.1011C61.5229 81.0449 60.2436 81.5757 58.9092 81.5772ZM58.9092 71.967C58.0042 71.967 57.1196 72.2354 56.3672 72.7383C55.6148 73.2411 55.0283 73.9558 54.682 74.792C54.3357 75.6282 54.2451 76.5484 54.4216 77.4361C54.5982 78.3238 55.0339 79.1392 55.6738 79.7792C56.3137 80.4192 57.129 80.8551 58.0166 81.0316C58.9041 81.2082 59.8241 81.1176 60.6601 80.7712C61.4962 80.4249 62.2108 79.8383 62.7136 79.0857C63.2163 78.3332 63.4847 77.4484 63.4847 76.5433C63.4833 75.33 63.0008 74.1668 62.143 73.3089C61.2853 72.451 60.1223 71.9684 58.9092 71.967Z" fill="#3F3D56"/>
<path d="M165.746 31.467C164.751 31.467 163.778 31.1718 162.95 30.6187C162.123 30.0655 161.477 29.2793 161.097 28.3595C160.716 27.4397 160.616 26.4275 160.81 25.4511C161.004 24.4746 161.484 23.5776 162.188 22.8736C162.891 22.1696 163.788 21.6902 164.765 21.496C165.741 21.3017 166.753 21.4014 167.673 21.7824C168.592 22.1634 169.378 22.8086 169.931 23.6364C170.484 24.4643 170.78 25.4375 170.78 26.4331C170.778 27.7677 170.247 29.0473 169.304 29.991C168.36 30.9347 167.081 31.4655 165.746 31.467ZM165.746 21.8569C164.842 21.8569 163.957 22.1253 163.204 22.6281C162.452 23.1309 161.866 23.8457 161.519 24.6819C161.173 25.5181 161.082 26.4382 161.259 27.3259C161.435 28.2136 161.871 29.029 162.511 29.669C163.151 30.309 163.966 30.7449 164.854 30.9215C165.741 31.098 166.661 31.0074 167.497 30.6611C168.334 30.3147 169.048 29.7281 169.551 28.9756C170.054 28.223 170.322 27.3382 170.322 26.4331C170.321 25.2198 169.838 24.0566 168.98 23.1987C168.123 22.3408 166.96 21.8582 165.746 21.8569Z" fill="#3F3D56"/>
<path d="M10.9806 193.923L10.5516 199.928V203.36C10.5516 203.36 9.6938 212.369 17.8432 211.511C25.9926 210.653 19.13 197.784 19.13 197.784L18.2721 195.21L10.9806 193.923Z" fill="#2F2E41"/>
<path d="M21.7035 180.624C21.7035 180.624 19.13 181.482 19.9878 187.059C19.9878 187.059 22.1324 188.775 24.277 189.633C25.086 189.987 25.8233 190.486 26.4523 191.106C28.6749 193.228 31.4361 194.699 34.4361 195.361C36.4697 195.795 38.3374 195.746 38.8602 194.352C40.1469 190.92 33.7132 187.917 33.7132 187.917L28.5662 182.34L21.7035 180.624Z" fill="#2F2E41"/>
<path d="M49.1542 123.139C49.1542 123.139 56.8747 133.435 53.0144 133.864C49.1542 134.293 46.1517 124.855 46.1517 124.855L49.1542 123.139Z" fill="#FBBEBE"/>
<path d="M14.8408 116.704L13.983 146.733C13.983 146.733 12.2673 152.31 12.6962 154.884C12.6962 154.884 11.9692 157.793 11.8538 158.924C11.8438 159.022 11.8384 159.106 11.8384 159.174C11.8384 160.032 8.40707 174.618 10.5517 184.914C10.5517 184.914 8.40707 193.065 10.9806 195.21L19.13 195.639L18.7011 179.766L22.9902 155.742L25.1348 149.307C25.1348 149.307 21.7035 167.325 22.5613 173.331C22.5613 173.331 20.8457 178.479 21.2746 181.482C21.2746 181.482 21.7035 185.343 28.9951 182.769L30.2818 175.905L40.7149 122.098L30.7107 117.562L14.8408 116.704Z" fill="#2F2E41"/>
<path d="M34.1421 69.944C38.406 69.944 41.8626 66.4868 41.8626 62.2222C41.8626 57.9575 38.406 54.5003 34.1421 54.5003C29.8782 54.5003 26.4216 57.9575 26.4216 62.2222C26.4216 66.4868 29.8782 69.944 34.1421 69.944Z" fill="#FBBEBE"/>
<path d="M27.4939 63.2946L24.4915 69.7296L32.2119 74.8774L36.0723 68.0135L27.4939 63.2946Z" fill="#FBBEBE"/>
<path d="M33.7132 74.2339L33.5896 72.4278C33.5896 72.4278 27.9266 70.0891 25.4585 67.6571L23.4192 69.086L11.4095 74.6629L15.6987 119.707C15.6987 119.707 23.4192 118.849 28.1373 123.997C32.8554 129.145 41.0048 121.852 41.0048 121.852V109.411L38.8602 95.2545L41.0048 79.8108L33.7132 74.2339Z" fill="#D0CDE1"/>
<path d="M38.0023 79.3818L41.0047 79.8108C41.0047 79.8108 42.2652 82.3322 41.8752 90.7024C41.8712 90.7892 41.8669 90.8766 41.8625 90.9646C41.4336 99.5444 43.1493 102.547 43.1493 102.547L50.4409 123.997L45.7228 126.571L38.8601 113.272L34.142 85.8167L38.0023 79.3818Z" fill="#D0CDE1"/>
<path d="M42.7961 57.8131C42.8248 57.2797 42.7562 56.7455 42.5936 56.2367C42.1957 55.1497 41.1481 54.4589 40.1536 53.8668C38.7582 53.0359 37.3119 52.2361 35.7262 51.8853C34.1405 51.5344 32.376 51.684 31.0557 52.6298C30.2061 53.2384 29.6012 54.1233 29.0381 55.0037C28.3962 55.9378 27.8767 56.9505 27.4924 58.0169C27.4565 58.0991 27.4482 58.1906 27.4685 58.2779C27.5089 58.3602 27.5727 58.4288 27.6519 58.475C28.7119 59.2667 29.5081 59.6155 28.7806 60.7207C30.5354 58.9104 31.7835 58.4027 33.5382 56.5924C33.3325 56.7826 33.6405 57.1241 33.9203 57.1118C34.2002 57.0994 34.4617 56.927 34.7408 56.9514C35.1474 56.987 35.3912 57.4009 35.6937 57.6749C35.9961 57.949 36.6288 57.9837 36.6801 57.5787L37.7477 59.0214C37.9602 58.9424 38.1467 58.806 38.2863 58.6274L39.4366 60.367L39.921 59.8479C40.1358 60.1759 40.3293 60.5175 40.5001 60.8705C41.4003 60.1244 41.6743 61.9724 41.6751 62.4099C42.6522 62.2642 42.7855 58.6069 42.7961 57.8131Z" fill="#2F2E41"/>
<path d="M22.1324 120.565C22.1324 120.565 29.8529 130.861 25.9926 131.29C22.1324 131.719 19.1299 122.281 19.1299 122.281L22.1324 120.565Z" fill="#FBBEBE"/>
<path d="M13.1252 75.0919L11.4095 74.6629C11.4095 74.6629 6.69142 81.0978 5.83359 87.9617C4.97576 94.8256 4.11792 103.405 4.11792 103.405L18.7011 123.997L23.8481 120.136L12.6963 100.831L16.5565 95.2545L13.1252 75.0919Z" fill="#D0CDE1"/>
<path opacity="0.1" d="M14.5894 104.108L23.6337 119.922L15.4843 102.762L14.5894 104.108Z" fill="black"/>
</svg>
