<svg width="35" height="35" viewBox="0 0 35 35" fill="none" xmlns="http://www.w3.org/2000/svg">
<g filter="url(#filter0_d)">
<rect width="25" height="25" rx="3" transform="matrix(-1 0 0 1 30 3)" fill="white"/>
<path d="M8.12499 14.4583H26.875C27.4503 14.4583 27.9167 14.9247 27.9167 15.5C27.9167 16.0753 27.4503 16.5416 26.875 16.5416H8.12499C7.54969 16.5416 7.08332 16.0753 7.08332 15.5C7.08332 14.9247 7.54969 14.4583 8.12499 14.4583ZM8.12499 7.16663H26.875C27.4503 7.16663 27.9167 7.633 27.9167 8.20829C27.9167 8.78359 27.4503 9.24996 26.875 9.24996H8.12499C7.54969 9.24996 7.08332 8.78359 7.08332 8.20829C7.08332 7.633 7.54969 7.16663 8.12499 7.16663ZM26.875 23.8333H16.4583C15.883 23.8333 15.4167 23.3669 15.4167 22.7916C15.4167 22.2163 15.883 21.75 16.4583 21.75H26.875C27.4503 21.75 27.9167 22.2163 27.9167 22.7916C27.9167 23.3669 27.4503 23.8333 26.875 23.8333Z" fill="#1F1F1F"/>
</g>
<defs>
<filter id="filter0_d" x="0" y="0" width="35" height="35" filterUnits="userSpaceOnUse" color-interpolation-filters="sRGB">
<feFlood flood-opacity="0" result="BackgroundImageFix"/>
<feColorMatrix in="SourceAlpha" type="matrix" values="0 0 0 0 0 0 0 0 0 0 0 0 0 0 0 0 0 0 127 0"/>
<feOffset dy="2"/>
<feGaussianBlur stdDeviation="2.5"/>
<feColorMatrix type="matrix" values="0 0 0 0 0 0 0 0 0 0 0 0 0 0 0 0 0 0 0.1 0"/>
<feBlend mode="normal" in2="BackgroundImageFix" result="effect1_dropShadow"/>
<feBlend mode="normal" in="SourceGraphic" in2="effect1_dropShadow" result="shape"/>
</filter>
</defs>
</svg>
